<svg width="25" height="25" viewBox="0 0 25 25" fill="none" xmlns="http://www.w3.org/2000/svg">
<path d="M24.6582 21.6152L19.79 16.7471C19.5703 16.5273 19.2725 16.4053 18.96 16.4053H18.1641C19.5117 14.6816 20.3125 12.5137 20.3125 10.1553C20.3125 4.54492 15.7666 -0.000976562 10.1562 -0.000976562C4.5459 -0.000976562 0 4.54492 0 10.1553C0 15.7656 4.5459 20.3115 10.1562 20.3115C12.5146 20.3115 14.6826 19.5107 16.4062 18.1631V18.959C16.4062 19.2715 16.5283 19.5693 16.748 19.7891L21.6162 24.6572C22.0752 25.1162 22.8174 25.1162 23.2715 24.6572L24.6533 23.2754C25.1123 22.8164 25.1123 22.0742 24.6582 21.6152ZM10.1562 16.4053C6.7041 16.4053 3.90625 13.6123 3.90625 10.1553C3.90625 6.70312 6.69922 3.90527 10.1562 3.90527C13.6084 3.90527 16.4062 6.69824 16.4062 10.1553C16.4062 13.6074 13.6133 16.4053 10.1562 16.4053Z" fill="#FE6326"/>
</svg>
